# xmcd
#
# Track frame offsets:
#	150
#	15637
#	31492
#	49516
#	66750
#	81694
#	101343
#	117127
#	138071
#	156373
#	172510
#
# Disc length: 2549 seconds
#
# Revision: 1
# Processed by: cddbd v1.5.1PL0 Copyright (c) Steve Scherf et al.
# Submitted via: EasyCDDAExtractor 6.2.0.3
#
DISCID=8009f30b
DTITLE=Paula Lobos - Aura
DYEAR=2003
DGENRE=R&B
TTITLE0=Faith
TTITLE1=Practise (What You Preach)
TTITLE2=Fuss and Fight
TTITLE3=Your Life
TTITLE4=I Will Cry
TTITLE5=Keep Me Alive
TTITLE6=Movin' On
TTITLE7=Pressure
TTITLE8=You Can't Care
TTITLE9=What You Do (Is Up To You)
TTITLE10=Angel
EXTD=
EXTT0=
EXTT1=
EXTT2=
EXTT3=
EXTT4=
EXTT5=
EXTT6=
EXTT7=
EXTT8=
EXTT9=
EXTT10=
PLAYORDER=
